<svg width="31" height="29" viewBox="0 0 31 29" fill="none" xmlns="http://www.w3.org/2000/svg">
<path d="M17.5 5C23.4392 5 28.25 9.77065 28.25 15.6504C28.2498 21.53 23.4391 26.2998 17.5 26.2998C11.5609 26.2998 6.75016 21.53 6.75 15.6504C6.75 9.77065 11.5608 5 17.5 5Z" stroke="#787878" stroke-width="0.5"/>
<line x1="17.75" y1="5.47656" x2="17.75" y2="26.5501" stroke="#787878" stroke-width="0.5"/>
<path d="M11.2666 7.38403C15.5477 13.3392 20.899 12.9138 24.4666 7.8094" stroke="#787878" stroke-width="0.5"/>
<path d="M7.2334 13.47C15.9266 19.3862 20.3977 19.1796 27.7667 13.47" stroke="#787878" stroke-width="0.5"/>
<path d="M7.2334 18.5569C15.9266 24.4731 20.3977 24.2666 27.7667 18.5569" stroke="#787878" stroke-width="0.5"/>
<path d="M17.4999 5.47666C6.13324 10.5633 9.43324 25.8235 17.5 26.1869" stroke="#787878" stroke-width="0.5"/>
<path d="M22.0735 0.512858C20.9524 2.13419 17.4435 5.61498 17.5001 5.25" stroke="#787878" stroke-width="0.5"/>
<path d="M3.07477 8.19364C3.72321 9.77566 7.40801 13.5401 7.5 13.7499" stroke="#787878" stroke-width="0.5"/>
<path d="M18.2768 26.2293C29.2582 22.5501 25.121 6.56451 17.9774 5.37239" stroke="#787878" stroke-width="0.5"/>
<circle cx="25.5" cy="22.75" r="5.25" fill="#D9D9D9" stroke="#787878" stroke-width="0.5"/>
<circle cx="25.5" cy="20.75" r="2.25" fill="#434343" stroke="#787878" stroke-width="0.5"/>
<path d="M28.1865 23.7119C28.8119 23.4871 29.1631 23.4678 29.3584 23.5332C29.5175 23.5866 29.6225 23.716 29.6846 24.0137C29.7484 24.32 29.75 24.7294 29.75 25.2412C29.75 25.4376 29.6618 25.6437 29.4648 25.8516C29.2666 26.0607 28.968 26.2605 28.5801 26.4336C27.8047 26.7797 26.7159 27 25.5 27C24.2841 27 23.1953 26.7797 22.4199 26.4336C22.032 26.2605 21.7334 26.0607 21.5352 25.8516C21.3382 25.6437 21.25 25.4376 21.25 25.2412C21.25 24.9584 21.2512 24.6611 21.3135 24.3994C21.3746 24.1431 21.4861 23.9575 21.6807 23.8535C21.8835 23.7452 22.2326 23.6953 22.8379 23.8457C23.4401 23.9954 24.2619 24.3354 25.3779 24.958L25.5 25.0254L25.6221 24.958C26.7434 24.3324 27.5731 23.9325 28.1865 23.7119Z" fill="#424242" stroke="#787878" stroke-width="0.5"/>
<circle cx="23.5" cy="5.5" r="5.25" fill="#D9D9D9" stroke="#787878" stroke-width="0.5"/>
<circle cx="23.5" cy="3.5" r="2.25" fill="#434343" stroke="#787878" stroke-width="0.5"/>
<path d="M26.1865 6.46191C26.8119 6.23707 27.1631 6.21783 27.3584 6.2832C27.5175 6.33661 27.6225 6.46604 27.6846 6.76367C27.7484 7.07002 27.75 7.47939 27.75 7.99121C27.75 8.18756 27.6618 8.39369 27.4648 8.60156C27.2666 8.81069 26.968 9.01045 26.5801 9.18359C25.8047 9.52968 24.7159 9.75 23.5 9.75C22.2841 9.75 21.1953 9.52968 20.4199 9.18359C20.032 9.01045 19.7334 8.81069 19.5352 8.60156C19.3382 8.39369 19.25 8.18756 19.25 7.99121C19.25 7.70838 19.2512 7.41106 19.3135 7.14941C19.3746 6.89313 19.4861 6.70751 19.6807 6.60352C19.8835 6.49519 20.2326 6.4453 20.8379 6.5957C21.4401 6.74537 22.2619 7.0854 23.3779 7.70801L23.5 7.77539L23.6221 7.70801C24.7434 7.08244 25.5731 6.68245 26.1865 6.46191Z" fill="#424242" stroke="#787878" stroke-width="0.5"/>
<circle cx="5.5" cy="12.5" r="5.25" fill="#D9D9D9" stroke="#787878" stroke-width="0.5"/>
<circle cx="5.5" cy="10.5" r="2.25" fill="#434343" stroke="#787878" stroke-width="0.5"/>
<path d="M8.18652 13.4619C8.81192 13.2371 9.16308 13.2178 9.3584 13.2832C9.51754 13.3366 9.62254 13.466 9.68457 13.7637C9.74841 14.07 9.75 14.4794 9.75 14.9912C9.75 15.1876 9.66183 15.3937 9.46484 15.6016C9.26662 15.8107 8.96799 16.0105 8.58008 16.1836C7.80466 16.5297 6.71587 16.75 5.5 16.75C4.28413 16.75 3.19534 16.5297 2.41992 16.1836C2.03201 16.0105 1.73338 15.8107 1.53516 15.6016C1.33817 15.3937 1.25 15.1876 1.25 14.9912C1.25 14.7084 1.25116 14.4111 1.31348 14.1494C1.37459 13.8931 1.48611 13.7075 1.68066 13.6035C1.88348 13.4952 2.23264 13.4453 2.83789 13.5957C3.44013 13.7454 4.26192 14.0854 5.37793 14.708L5.5 14.7754L5.62207 14.708C6.74338 14.0824 7.57314 13.6825 8.18652 13.4619Z" fill="#424242" stroke="#787878" stroke-width="0.5"/>
</svg>
